<?xml version="1.0" encoding="utf-8"?>
<!-- Generator: Adobe Illustrator 18.0.0, SVG Export Plug-In . SVG Version: 6.00 Build 0)  -->
<!DOCTYPE svg PUBLIC "-//W3C//DTD SVG 1.1//EN" "http://www.w3.org/Graphics/SVG/1.1/DTD/svg11.dtd">
<svg version="1.1" id="Layer_1" xmlns="http://www.w3.org/2000/svg" xmlns:xlink="http://www.w3.org/1999/xlink" x="0px" y="0px" viewBox="0 0 131.9 233.9" enable-background="new 0 0 131.9 233.9" xml:space="preserve">
<path fill="#E7E6E6" d="M117,0.8h-102C7.1,0.8,0.8,7.1,0.8,14.9V219c0,7.8,6.3,14.2,14.2,14.2h102c7.8,0,14.2-6.3,14.2-14.2V14.9
	C131.1,7.1,124.8,0.8,117,0.8 M65.9,219.2c-10.2,0-18.4-8.3-18.4-18.4c0-10.2,8.3-18.4,18.4-18.4c10.2,0,18.4,8.3,18.4,18.4
	C84.4,210.9,76.1,219.2,65.9,219.2 M65.9,170.2c-10.2,0-18.4-8.3-18.4-18.4s8.3-18.4,18.4-18.4c10.2,0,18.4,8.3,18.4,18.4
	S76.1,170.2,65.9,170.2 M65.9,116.8c-28.1,0-51-22.9-51-51c0-28.1,22.9-51,51-51c28.1,0,51,22.9,51,51
	C117,93.9,94.1,116.8,65.9,116.8"/>
<path fill="none" stroke="#231F20" stroke-width="1.5" stroke-miterlimit="10" d="M117,0.8h-102C7.1,0.8,0.8,7.1,0.8,14.9V219
	c0,7.8,6.3,14.2,14.2,14.2h102c7.8,0,14.2-6.3,14.2-14.2V14.9C131.1,7.1,124.8,0.8,117,0.8z M65.9,219.2c-10.2,0-18.4-8.3-18.4-18.4
	c0-10.2,8.3-18.4,18.4-18.4c10.2,0,18.4,8.3,18.4,18.4C84.4,210.9,76.1,219.2,65.9,219.2z M65.9,170.2c-10.2,0-18.4-8.3-18.4-18.4
	s8.3-18.4,18.4-18.4c10.2,0,18.4,8.3,18.4,18.4S76.1,170.2,65.9,170.2z M65.9,116.8c-28.1,0-51-22.9-51-51c0-28.1,22.9-51,51-51
	c28.1,0,51,22.9,51,51C117,93.9,94.1,116.8,65.9,116.8z"/>
</svg>
